<svg xmlns="http://www.w3.org/2000/svg" viewBox="0 0 240 320" width="240" height="320" role="img" aria-label="Swan Lake scene 01 — The curtain rises">
  <defs>
    <linearGradient id="card-bg-01" x1="0" y1="0" x2="0" y2="1">
    <stop offset="0%" stop-color="#fff7ed"/>
    <stop offset="100%" stop-color="#fde68a"/>
  </linearGradient>
    <linearGradient id="tutu-01" x1="0" y1="0" x2="0" y2="1">
    <stop offset="0%" stop-color="#fffaf0"/>
    <stop offset="100%" stop-color="#fde4c5"/>
  </linearGradient>
    <linearGradient id="curtain-01" x1="0" y1="0" x2="0" y2="1">
      <stop offset="0%" stop-color="#7f1d1d"/><stop offset="60%" stop-color="#b91c1c"/><stop offset="100%" stop-color="#7f1d1d"/>
    </linearGradient>
    <radialGradient id="spot-01" cx="0.5" cy="0.2" r="0.6">
      <stop offset="0%" stop-color="#fffbeb" stop-opacity="0.85"/><stop offset="100%" stop-color="#fffbeb" stop-opacity="0"/>
    </radialGradient>
    <linearGradient id="floor-01" x1="0" y1="0" x2="0" y2="1">
      <stop offset="0%" stop-color="#78350f"/><stop offset="100%" stop-color="#451a03"/>
    </linearGradient>
  </defs>
  <rect x="6" y="6" width="228" height="308" rx="20" fill="url(#card-bg-01)" stroke="#f59e0b" stroke-width="2"/>
  <text x="120" y="38" text-anchor="middle" font-family="Georgia, serif" font-size="11" letter-spacing="3" fill="#92400e">SWAN LAKE</text>
  <clipPath id="stage-01"><rect x="22" y="50" width="196" height="200" rx="6"/></clipPath>
  <g clip-path="url(#stage-01)">
    <rect x="22" y="50" width="196" height="200" fill="#1c1410"/>
    <path d="M22 50 L218 50 L218 78 C200 90 175 96 150 92 C130 88 110 80 90 78 C70 76 45 82 22 92 Z" fill="url(#curtain-01)"/>
    <path d="M22 50 L22 250 L52 250 C46 200 50 140 36 95 C30 80 22 70 22 50 Z" fill="url(#curtain-01)"/>
    <path d="M218 50 L218 250 L188 250 C194 200 190 140 204 95 C210 80 218 70 218 50 Z" fill="url(#curtain-01)"/>
    <g fill="#d4a017"><circle cx="58" cy="95" r="2"/><circle cx="82" cy="88" r="2"/><circle cx="120" cy="92" r="2"/><circle cx="158" cy="88" r="2"/><circle cx="182" cy="95" r="2"/></g>
    <ellipse cx="120" cy="240" rx="56" ry="14" fill="#fffbeb" fill-opacity="0.15"/>
    <rect x="22" y="50" width="196" height="200" fill="url(#spot-01)"/>
    <rect x="22" y="232" width="196" height="18" fill="url(#floor-01)"/>
    <g transform="translate(120 168)">
    <ellipse cx="0" cy="68" rx="14" ry="2.5" fill="#000" fill-opacity="0.3"/>
    <path d="M-4 24 C-5 40 -5 58 -5 66 L5 66 C5 58 5 40 4 24 Z" fill="#f9e3c7"/>
        <path d="M-9 66 C-9 70 -4 70 -2 70 L2 70 C4 70 9 70 9 66 L5 64 L-5 64 Z" fill="#f9a8c1"/>
        <path d="M-5 62 L-4 66 M5 62 L4 66" stroke="#f9a8c1" stroke-width="0.6"/>
    <path d="M-22 22 C-26 30 -24 38 -16 40 L16 40 C24 38 26 30 22 22 C18 18 -18 18 -22 22 Z" fill="url(#tutu-01)" stroke="#c9924d" stroke-width="0.4"/>
    <path d="M-20 26 C-24 32 -22 38 -16 40 L16 40 C22 38 24 32 20 26" fill="#fff5e1" opacity="0.4"/>
    <path d="M-9 -2 C-10 8 -10 16 -8 22 L8 22 C10 16 10 8 9 -2 C7 -4 -7 -4 -9 -2 Z" fill="#f9e3c7" stroke="#c9924d" stroke-width="0.4"/>
    <path d="M-7 -2 C-3 -3 3 -3 7 -2" stroke="#d4a017" stroke-width="0.8" fill="none"/>
    <path d="M-9 4 C-14 12 -12 22 -4 26" stroke="#f9e3c7" stroke-width="3" fill="none" stroke-linecap="round"/>
        <path d="M9 4 C14 12 12 22 4 26" stroke="#f9e3c7" stroke-width="3" fill="none" stroke-linecap="round"/>
        <circle cx="-3" cy="26" r="1.6" fill="#f9e3c7"/>
        <circle cx="3" cy="26" r="1.6" fill="#f9e3c7"/>
    <g transform="rotate(8)">
    <ellipse cx="0" cy="-16" rx="8" ry="9" fill="#f9e3c7"/>
    <path d="M-8 -16 C-8 -23 -4 -27 0 -27 C4 -27 8 -23 8 -16 C8 -14 6 -12 4 -12 L-4 -12 C-6 -12 -8 -14 -8 -16 Z" fill="#6b3410"/>
    <path d="M0 -27 L0 -16" stroke="#3d1d08" stroke-width="0.5"/>
    <ellipse cx="0" cy="-9" rx="5" ry="3.5" fill="#6b3410" stroke="#3d1d08" stroke-width="0.3"/>
    <path d="M-5 -10 L-7 -7 L-2 -8 Z M5 -10 L7 -7 L2 -8 Z" fill="#fff5e1" stroke="#c9924d" stroke-width="0.3"/>
    <path d="M-3.5 -16 L-2 -16 M2 -16 L3.5 -16" stroke="#3d1d08" stroke-width="0.7" stroke-linecap="round"/>
    <path d="M-3 -15.5 L-2.5 -15 M3 -15.5 L2.5 -15" stroke="#3d1d08" stroke-width="0.4"/>
    <path d="M0 -14 L-0.5 -12.5" stroke="#c9924d" stroke-width="0.4" fill="none"/>
    <path d="M-1.5 -10.5 Q0 -10 1.5 -10.5" stroke="#a44a4a" stroke-width="0.5" fill="none"/>
    <circle cx="-4" cy="-12.5" r="1.2" fill="#f4a8a8" opacity="0.6"/>
    <circle cx="4" cy="-12.5" r="1.2" fill="#f4a8a8" opacity="0.6"/>
  </g>
  <path d="M-2.5 -4 L-2.5 -8 L2.5 -8 L2.5 -4 Z" fill="#f9e3c7"/>
  </g>
  </g>
  <rect x="22" y="50" width="196" height="200" rx="6" fill="none" stroke="#92400e" stroke-width="0.6" opacity="0.6"/>
  <text x="120" y="278" text-anchor="middle" font-family="Georgia, serif" font-size="13" font-style="italic" fill="#92400e">The curtain rises</text>
  <text x="120" y="298" text-anchor="middle" font-family="system-ui, sans-serif" font-size="8" letter-spacing="2" fill="#92400e" opacity="0.6">SCENE 01 OF 24</text>
</svg>
