<svg xmlns="http://www.w3.org/2000/svg" viewBox="0 0 240 320" width="240" height="320" role="img" aria-label="Swan Lake scene 04 — A bow to the Queen">
  <defs>
    <linearGradient id="card-bg-04" x1="0" y1="0" x2="0" y2="1">
    <stop offset="0%" stop-color="#fef3e2"/>
    <stop offset="100%" stop-color="#f0c98a"/>
  </linearGradient>
    <linearGradient id="tutu-04" x1="0" y1="0" x2="0" y2="1">
    <stop offset="0%" stop-color="#fdf3c4"/>
    <stop offset="100%" stop-color="#f5cf78"/>
  </linearGradient>
    <radialGradient id="candle-04" cx="0.7" cy="0.3" r="0.7">
      <stop offset="0%" stop-color="#fef3c7" stop-opacity="0.7"/><stop offset="100%" stop-color="#92400e" stop-opacity="0"/>
    </radialGradient>
  </defs>
  <rect x="6" y="6" width="228" height="308" rx="20" fill="url(#card-bg-04)" stroke="#f59e0b" stroke-width="2"/>
  <text x="120" y="38" text-anchor="middle" font-family="Georgia, serif" font-size="11" letter-spacing="3" fill="#92400e">SWAN LAKE</text>
  <clipPath id="stage-04"><rect x="22" y="50" width="196" height="200" rx="6"/></clipPath>
  <g clip-path="url(#stage-04)">
    <rect x="22" y="50" width="196" height="200" fill="#3b1f0d"/>
    <rect x="22" y="50" width="196" height="200" fill="url(#candle-04)"/>
    <rect x="22" y="225" width="196" height="25" fill="#5b3013"/>
    <g stroke="#c9924d" stroke-width="0.4" opacity="0.5"><path d="M22 235 L218 235"/></g>
    <g fill="#8b1a1a" stroke="#5b0e0e" stroke-width="0.5">
      <rect x="166" y="120" width="50" height="120"/>
      <path d="M166 120 L191 100 L216 120 Z"/>
      <rect x="180" y="135" width="22" height="65" rx="2" fill="#5b0e0e"/>
    </g>
    <g fill="#d4a017"><circle cx="191" cy="115" r="3"/></g>
    <g fill="#5b3013" opacity="0.5">
      <rect x="30" y="80" width="40" height="120"/>
      <rect x="80" y="80" width="40" height="120"/>
    </g>
    <g fill="#fcd34d" opacity="0.6">
      <circle cx="50" cy="100" r="6"/><circle cx="100" cy="100" r="6"/>
    </g>
    <g transform="translate(120 168)">
    <ellipse cx="0" cy="68" rx="14" ry="2.5" fill="#000" fill-opacity="0.3"/>
    <path d="M-5 24 C-6 40 -6 58 -6 66 L1 66 L1 24 Z" fill="#f9e3c7"/>
        <path d="M1 24 C4 36 6 50 8 60 L4 64 L0 50 Z" fill="#f9e3c7"/>
        <path d="M-10 66 C-10 70 -5 70 -3 70 L1 70 L1 64 L-7 64 Z" fill="#f9a8c1"/>
        <path d="M8 60 L14 66 L10 68 L6 64 Z" fill="#f9a8c1"/>
    <path d="M-22 22 C-26 30 -24 38 -16 40 L16 40 C24 38 26 30 22 22 C18 18 -18 18 -22 22 Z" fill="url(#tutu-04)" stroke="#c9924d" stroke-width="0.4"/>
    <path d="M-20 26 C-24 32 -22 38 -16 40 L16 40 C22 38 24 32 20 26" fill="#fff5e1" opacity="0.4"/>
    <path d="M-9 -2 C-10 8 -10 16 -8 22 L8 22 C10 16 10 8 9 -2 C7 -4 -7 -4 -9 -2 Z" fill="#f9e3c7" stroke="#c9924d" stroke-width="0.4"/>
    <path d="M-7 -2 C-3 -3 3 -3 7 -2" stroke="#d4a017" stroke-width="0.8" fill="none"/>
    <path d="M9 4 C14 14 18 22 14 28" stroke="#f9e3c7" stroke-width="3" fill="none" stroke-linecap="round"/>
        <path d="M-9 4 C-18 8 -28 14 -34 18" stroke="#f9e3c7" stroke-width="3" fill="none" stroke-linecap="round"/>
        <circle cx="14" cy="28" r="1.6" fill="#f9e3c7"/>
        <circle cx="-34" cy="18" r="1.6" fill="#f9e3c7"/>
    <g transform="rotate(20)">
    <ellipse cx="0" cy="-16" rx="8" ry="9" fill="#f9e3c7"/>
    <path d="M-8 -16 C-8 -23 -4 -27 0 -27 C4 -27 8 -23 8 -16 C8 -14 6 -12 4 -12 L-4 -12 C-6 -12 -8 -14 -8 -16 Z" fill="#6b3410"/>
    <path d="M0 -27 L0 -16" stroke="#3d1d08" stroke-width="0.5"/>
    <ellipse cx="0" cy="-9" rx="5" ry="3.5" fill="#6b3410" stroke="#3d1d08" stroke-width="0.3"/>
    <path d="M-5 -10 L-7 -7 L-2 -8 Z M5 -10 L7 -7 L2 -8 Z" fill="#fdf3c4" stroke="#c9924d" stroke-width="0.3"/>
    <path d="M-3.5 -16 L-2 -16 M2 -16 L3.5 -16" stroke="#3d1d08" stroke-width="0.7" stroke-linecap="round"/>
    <path d="M-3 -15.5 L-2.5 -15 M3 -15.5 L2.5 -15" stroke="#3d1d08" stroke-width="0.4"/>
    <path d="M0 -14 L-0.5 -12.5" stroke="#c9924d" stroke-width="0.4" fill="none"/>
    <path d="M-1.5 -10.5 Q0 -10 1.5 -10.5" stroke="#a44a4a" stroke-width="0.5" fill="none"/>
    <circle cx="-4" cy="-12.5" r="1.2" fill="#f4a8a8" opacity="0.6"/>
    <circle cx="4" cy="-12.5" r="1.2" fill="#f4a8a8" opacity="0.6"/>
  </g>
  <path d="M-2.5 -4 L-2.5 -8 L2.5 -8 L2.5 -4 Z" fill="#f9e3c7"/>
  </g>
  </g>
  <rect x="22" y="50" width="196" height="200" rx="6" fill="none" stroke="#92400e" stroke-width="0.6" opacity="0.6"/>
  <text x="120" y="278" text-anchor="middle" font-family="Georgia, serif" font-size="13" font-style="italic" fill="#92400e">A bow to the Queen</text>
  <text x="120" y="298" text-anchor="middle" font-family="system-ui, sans-serif" font-size="8" letter-spacing="2" fill="#92400e" opacity="0.6">SCENE 04 OF 24</text>
</svg>
