<svg xmlns="http://www.w3.org/2000/svg" viewBox="0 0 240 320" width="240" height="320" role="img" aria-label="Swan Lake scene 07 — A flock of swans appears">
  <defs>
    <linearGradient id="card-bg-07" x1="0" y1="0" x2="0" y2="1">
    <stop offset="0%" stop-color="#1e293b"/>
    <stop offset="100%" stop-color="#0f172a"/>
  </linearGradient>
    <linearGradient id="tutu-07" x1="0" y1="0" x2="0" y2="1">
    <stop offset="0%" stop-color="#f1f5f9"/>
    <stop offset="100%" stop-color="#cbd5e1"/>
  </linearGradient>
    <radialGradient id="moon-07" cx="0.5" cy="0.5" r="0.5">
      <stop offset="0%" stop-color="#fef3c7"/><stop offset="100%" stop-color="#fde68a"/>
    </radialGradient>
  </defs>
  <rect x="6" y="6" width="228" height="308" rx="20" fill="url(#card-bg-07)" stroke="#f59e0b" stroke-width="2"/>
  <text x="120" y="38" text-anchor="middle" font-family="Georgia, serif" font-size="11" letter-spacing="3" fill="#92400e">SWAN LAKE</text>
  <clipPath id="stage-07"><rect x="22" y="50" width="196" height="200" rx="6"/></clipPath>
  <g clip-path="url(#stage-07)">
    <rect x="22" y="50" width="196" height="200" fill="#1e293b"/>
    <circle cx="155" cy="100" r="22" fill="url(#moon-07)" opacity="0.95"/>
    <g fill="#f8fafc" opacity="0.85">
      <path d="M60 110 C66 106 74 104 80 110 C76 114 70 116 64 114 Z"/>
      <path d="M90 95 C96 91 104 89 110 95 C106 99 100 101 94 99 Z"/>
      <path d="M125 115 C131 111 139 109 145 115 C141 119 135 121 129 119 Z"/>
      <path d="M165 130 C171 126 179 124 185 130 C181 134 175 136 169 134 Z"/>
      <path d="M48 145 C54 141 62 139 68 145 C64 149 58 151 52 149 Z"/>
    </g>
    <g fill="#cbd5e1" opacity="0.5">
      <path d="M62 110 L66 108 L60 110 Z"/><path d="M92 95 L96 93 L90 95 Z"/>
    </g>
    <rect x="22" y="210" width="196" height="40" fill="#0f172a"/>
    <g transform="translate(120 178)">
    <ellipse cx="0" cy="68" rx="14" ry="2.5" fill="#000" fill-opacity="0.3"/>
    <path d="M-6 24 C-7 40 -7 58 -7 66 L0 66 L0 24 Z" fill="#f9e3c7"/>
        <path d="M0 24 C-8 28 -16 30 -20 24 C-12 22 -4 22 0 24 Z" fill="#f9e3c7"/>
        <path d="M-20 24 L-30 14 L-26 10 L-16 22 Z" fill="#f9e3c7"/>
        <path d="M-11 66 C-11 70 -6 70 -4 70 L0 70 L0 64 L-8 64 Z" fill="#f9a8c1"/>
        <path d="M-30 14 L-36 6 L-32 4 L-26 12 Z" fill="#f9a8c1"/>
    <path d="M-22 22 C-26 30 -24 38 -16 40 L16 40 C24 38 26 30 22 22 C18 18 -18 18 -22 22 Z" fill="url(#tutu-07)" stroke="#c9924d" stroke-width="0.4"/>
    <path d="M-20 26 C-24 32 -22 38 -16 40 L16 40 C22 38 24 32 20 26" fill="#fff5e1" opacity="0.4"/>
    <path d="M-9 -2 C-10 8 -10 16 -8 22 L8 22 C10 16 10 8 9 -2 C7 -4 -7 -4 -9 -2 Z" fill="#e0e7ff" stroke="#c9924d" stroke-width="0.4"/>
    <path d="M-7 -2 C-3 -3 3 -3 7 -2" stroke="#bfdbfe" stroke-width="0.8" fill="none"/>
    <path d="M-9 4 C-18 -8 -28 -22 -34 -32" stroke="#f9e3c7" stroke-width="3" fill="none" stroke-linecap="round"/>
        <path d="M9 4 C18 -8 28 -22 34 -32" stroke="#f9e3c7" stroke-width="3" fill="none" stroke-linecap="round"/>
        <circle cx="-34" cy="-32" r="1.6" fill="#f9e3c7"/>
        <circle cx="34" cy="-32" r="1.6" fill="#f9e3c7"/>
    <g transform="rotate(-18)">
    <ellipse cx="0" cy="-16" rx="8" ry="9" fill="#f9e3c7"/>
    <path d="M-8 -16 C-8 -23 -4 -27 0 -27 C4 -27 8 -23 8 -16 C8 -14 6 -12 4 -12 L-4 -12 C-6 -12 -8 -14 -8 -16 Z" fill="#6b3410"/>
    <path d="M0 -27 L0 -16" stroke="#3d1d08" stroke-width="0.5"/>
    <ellipse cx="0" cy="-9" rx="5" ry="3.5" fill="#6b3410" stroke="#3d1d08" stroke-width="0.3"/>
    <path d="M-5 -10 L-7 -7 L-2 -8 Z M5 -10 L7 -7 L2 -8 Z" fill="#f1f5f9" stroke="#c9924d" stroke-width="0.3"/>
    <path d="M-3.5 -16 L-2 -16 M2 -16 L3.5 -16" stroke="#3d1d08" stroke-width="0.7" stroke-linecap="round"/>
    <path d="M-3 -15.5 L-2.5 -15 M3 -15.5 L2.5 -15" stroke="#3d1d08" stroke-width="0.4"/>
    <path d="M0 -14 L-0.5 -12.5" stroke="#c9924d" stroke-width="0.4" fill="none"/>
    <ellipse cx="0" cy="-10.2" rx="0.9" ry="0.6" fill="#a44a4a"/>
    <circle cx="-4" cy="-12.5" r="1.2" fill="#f4a8a8" opacity="0.6"/>
    <circle cx="4" cy="-12.5" r="1.2" fill="#f4a8a8" opacity="0.6"/>
  </g>
  <path d="M-2.5 -4 L-2.5 -8 L2.5 -8 L2.5 -4 Z" fill="#f9e3c7"/>
  </g>
  </g>
  <rect x="22" y="50" width="196" height="200" rx="6" fill="none" stroke="#92400e" stroke-width="0.6" opacity="0.6"/>
  <text x="120" y="278" text-anchor="middle" font-family="Georgia, serif" font-size="13" font-style="italic" fill="#92400e">A flock of swans appears</text>
  <text x="120" y="298" text-anchor="middle" font-family="system-ui, sans-serif" font-size="8" letter-spacing="2" fill="#92400e" opacity="0.6">SCENE 07 OF 24</text>
</svg>
