<svg xmlns="http://www.w3.org/2000/svg" viewBox="0 0 240 320" width="240" height="320" role="img" aria-label="Swan Lake scene 08">
  <defs>
    <linearGradient id="bg-08" x1="0" y1="0" x2="0" y2="1">
      <stop offset="0%" stop-color="#eff6ff"/>
      <stop offset="100%" stop-color="#bfdbfe"/>
    </linearGradient>
  </defs>
  <rect x="6" y="6" width="228" height="308" rx="20" fill="url(#bg-08)" stroke="#60a5fa" stroke-width="2"/>
  <text x="120" y="38" text-anchor="middle" font-family="Georgia, serif" font-size="11" letter-spacing="3" fill="#1e3a8a">SWAN LAKE</text>
  <g transform="translate(120 165)" fill="#1e3a8a">
    <ellipse cx="22" cy="22" rx="58" ry="26"/>
    <path d="M72 12 L96 -2 L80 28 Z"/>
    <path d="M-22 12 C-52 -8 -52 -60 -20 -70 C-4 -76 8 -64 2 -54 C-20 -44 -26 -22 -14 -6 Z"/>
    <circle cx="-14" cy="-66" r="8"/>
    <path d="M-22 -66 L-34 -62 L-22 -58 Z" fill="#f59e0b"/>
    <circle cx="-11" cy="-68" r="1.6" fill="#0f172a"/>
  </g>
  <text x="120" y="268" text-anchor="middle" font-family="Georgia, serif" font-size="46" font-weight="700" fill="#1e3a8a">08</text>
  <text x="120" y="290" text-anchor="middle" font-family="system-ui, sans-serif" font-size="9" letter-spacing="2" fill="#1e3a8a" opacity="0.6">SCENE 08 OF 24</text>
</svg>
