<svg xmlns="http://www.w3.org/2000/svg" viewBox="0 0 240 320" width="240" height="320" role="img" aria-label="Swan Lake scene 19 — 32 fouettés">
  <defs>
    <linearGradient id="card-bg-19" x1="0" y1="0" x2="0" y2="1">
    <stop offset="0%" stop-color="#0f0a18"/>
    <stop offset="100%" stop-color="#1e1b4b"/>
  </linearGradient>
    <linearGradient id="tutu-19" x1="0" y1="0" x2="0" y2="1">
    <stop offset="0%" stop-color="#1c1410"/>
    <stop offset="100%" stop-color="#0a0606"/>
  </linearGradient>
    <radialGradient id="spot-19" cx="0.5" cy="0.5" r="0.6">
      <stop offset="0%" stop-color="#fef3c7" stop-opacity="0.8"/><stop offset="100%" stop-color="#fef3c7" stop-opacity="0"/>
    </radialGradient>
  </defs>
  <rect x="6" y="6" width="228" height="308" rx="20" fill="url(#card-bg-19)" stroke="#f59e0b" stroke-width="2"/>
  <text x="120" y="38" text-anchor="middle" font-family="Georgia, serif" font-size="11" letter-spacing="3" fill="#92400e">SWAN LAKE</text>
  <clipPath id="stage-19"><rect x="22" y="50" width="196" height="200" rx="6"/></clipPath>
  <g clip-path="url(#stage-19)">
    <rect x="22" y="50" width="196" height="200" fill="#0f0a18"/>
    <rect x="22" y="50" width="196" height="200" fill="url(#spot-19)"/>
    <g stroke="#fef3c7" stroke-width="0.4" fill="none" opacity="0.35">
      <ellipse cx="120" cy="190" rx="50" ry="14"/><ellipse cx="120" cy="190" rx="40" ry="10"/>
    </g>
    <ellipse cx="120" cy="240" rx="56" ry="14" fill="#fef3c7" fill-opacity="0.15"/>
    <rect x="22" y="232" width="196" height="18" fill="#1c1410"/>
    <g transform="translate(120 168)">
    <ellipse cx="0" cy="68" rx="14" ry="2.5" fill="#000" fill-opacity="0.3"/>
    <path d="M-6 24 C-7 40 -7 58 -7 66 L0 66 L0 24 Z" fill="#f9e3c7"/>
        <path d="M0 24 L26 18 L42 14 L46 18 L42 22 L28 22 L0 30 Z" fill="#f9e3c7"/>
        <path d="M-11 66 C-11 70 -6 70 -4 70 L0 70 L0 64 L-8 64 Z" fill="#f9a8c1"/>
        <path d="M46 18 L54 16 L54 22 L46 22 Z" fill="#f9a8c1"/>
    <path d="M-22 22 C-26 30 -24 38 -16 40 L16 40 C24 38 26 30 22 22 C18 18 -18 18 -22 22 Z" fill="url(#tutu-19)" stroke="#dc2626" stroke-width="0.4"/>
    <path d="M-20 26 C-24 32 -22 38 -16 40 L16 40 C22 38 24 32 20 26" fill="#fff5e1" opacity="0.4"/>
    <path d="M-9 -2 C-10 8 -10 16 -8 22 L8 22 C10 16 10 8 9 -2 C7 -4 -7 -4 -9 -2 Z" fill="#0a0606" stroke="#dc2626" stroke-width="0.4"/>
    <path d="M-7 -2 C-3 -3 3 -3 7 -2" stroke="#dc2626" stroke-width="0.8" fill="none"/>
    <path d="M-9 4 C-22 4 -32 6 -36 8" stroke="#f9e3c7" stroke-width="3" fill="none" stroke-linecap="round"/>
        <path d="M9 4 C22 4 32 6 36 8" stroke="#f9e3c7" stroke-width="3" fill="none" stroke-linecap="round"/>
        <circle cx="-36" cy="8" r="1.6" fill="#f9e3c7"/>
        <circle cx="36" cy="8" r="1.6" fill="#f9e3c7"/>
    <g transform="rotate(-8)">
    <ellipse cx="0" cy="-16" rx="8" ry="9" fill="#f9e3c7"/>
    <path d="M-8 -16 C-8 -23 -4 -27 0 -27 C4 -27 8 -23 8 -16 C8 -14 6 -12 4 -12 L-4 -12 C-6 -12 -8 -14 -8 -16 Z" fill="#6b3410"/>
    <path d="M0 -27 L0 -16" stroke="#3d1d08" stroke-width="0.5"/>
    <ellipse cx="0" cy="-9" rx="5" ry="3.5" fill="#6b3410" stroke="#3d1d08" stroke-width="0.3"/>
    <path d="M-5 -10 L-7 -7 L-2 -8 Z M5 -10 L7 -7 L2 -8 Z" fill="#dc2626" stroke="#c9924d" stroke-width="0.3"/>
    <path d="M-3.5 -16 L-2 -16 M2 -16 L3.5 -16" stroke="#3d1d08" stroke-width="0.7" stroke-linecap="round"/>
    <path d="M-3 -15.5 L-2.5 -15 M3 -15.5 L2.5 -15" stroke="#3d1d08" stroke-width="0.4"/>
    <path d="M0 -14 L-0.5 -12.5" stroke="#c9924d" stroke-width="0.4" fill="none"/>
    <path d="M-2 -10.5 Q0 -9.4 2 -10.5" stroke="#a44a4a" stroke-width="0.6" fill="none"/>
    <circle cx="-4" cy="-12.5" r="1.2" fill="#f4a8a8" opacity="0.6"/>
    <circle cx="4" cy="-12.5" r="1.2" fill="#f4a8a8" opacity="0.6"/>
  </g>
  <path d="M-2.5 -4 L-2.5 -8 L2.5 -8 L2.5 -4 Z" fill="#f9e3c7"/>
  </g>
    <g stroke="#fef3c7" stroke-width="0.5" fill="none" opacity="0.4">
      <path d="M70 168 Q100 172 130 168"/><path d="M170 168 Q140 172 110 168"/>
    </g>
  </g>
  <rect x="22" y="50" width="196" height="200" rx="6" fill="none" stroke="#92400e" stroke-width="0.6" opacity="0.6"/>
  <text x="120" y="278" text-anchor="middle" font-family="Georgia, serif" font-size="13" font-style="italic" fill="#92400e">32 fouettés</text>
  <text x="120" y="298" text-anchor="middle" font-family="system-ui, sans-serif" font-size="8" letter-spacing="2" fill="#92400e" opacity="0.6">SCENE 19 OF 24</text>
</svg>
