<svg xmlns="http://www.w3.org/2000/svg" viewBox="0 0 240 320" width="240" height="320" role="img" aria-label="Swan Lake scene 21 — He races back to the lake">
  <defs>
    <linearGradient id="card-bg-21" x1="0" y1="0" x2="0" y2="1">
    <stop offset="0%" stop-color="#1e293b"/>
    <stop offset="100%" stop-color="#0f172a"/>
  </linearGradient>
    <linearGradient id="tutu-21" x1="0" y1="0" x2="0" y2="1">
    <stop offset="0%" stop-color="#f8fafc"/>
    <stop offset="100%" stop-color="#cbd5e1"/>
  </linearGradient>
  </defs>
  <rect x="6" y="6" width="228" height="308" rx="20" fill="url(#card-bg-21)" stroke="#f59e0b" stroke-width="2"/>
  <text x="120" y="38" text-anchor="middle" font-family="Georgia, serif" font-size="11" letter-spacing="3" fill="#92400e">SWAN LAKE</text>
  <clipPath id="stage-21"><rect x="22" y="50" width="196" height="200" rx="6"/></clipPath>
  <g clip-path="url(#stage-21)">
    <rect x="22" y="50" width="196" height="200" fill="#1e293b"/>
    <g fill="#0a0606" opacity="0.9">
      <ellipse cx="60" cy="120" rx="40" ry="60"/>
      <ellipse cx="190" cy="120" rx="40" ry="60"/>
    </g>
    <g stroke="#fef3c7" stroke-width="0.3" opacity="0.6" fill="none">
      <path d="M100 60 L110 80"/><path d="M140 65 L150 85"/>
    </g>
    <rect x="22" y="220" width="196" height="30" fill="#0f172a"/>
    <g stroke="#475569" stroke-width="0.4" opacity="0.5"><path d="M30 232 L60 232 M80 234 L120 234 M140 232 L170 232 M190 234 L210 234"/></g>
    <g transform="translate(120 168)">
    <ellipse cx="0" cy="68" rx="14" ry="2.5" fill="#000" fill-opacity="0.3"/>
    <path d="M-3 24 C-8 36 -14 50 -18 60 L-12 64 L-6 50 L0 32 Z" fill="#f9e3c7"/>
        <path d="M3 24 C10 32 18 40 24 50 L20 56 L12 46 L4 32 Z" fill="#f9e3c7"/>
        <path d="M-18 60 L-26 64 L-20 66 L-14 64 Z" fill="#f9a8c1"/>
        <path d="M24 50 L32 54 L30 58 L22 54 Z" fill="#f9a8c1"/>
    <path d="M-22 22 C-26 30 -24 38 -16 40 L16 40 C24 38 26 30 22 22 C18 18 -18 18 -22 22 Z" fill="url(#tutu-21)" stroke="#c9924d" stroke-width="0.4"/>
    <path d="M-20 26 C-24 32 -22 38 -16 40 L16 40 C22 38 24 32 20 26" fill="#fff5e1" opacity="0.4"/>
    <path d="M-9 -2 C-10 8 -10 16 -8 22 L8 22 C10 16 10 8 9 -2 C7 -4 -7 -4 -9 -2 Z" fill="#f1f5f9" stroke="#c9924d" stroke-width="0.4"/>
    <path d="M-7 -2 C-3 -3 3 -3 7 -2" stroke="#bfdbfe" stroke-width="0.8" fill="none"/>
    <path d="M-9 4 C-18 -2 -28 -6 -38 -10" stroke="#f9e3c7" stroke-width="3" fill="none" stroke-linecap="round"/>
        <path d="M9 4 C16 10 22 14 28 16" stroke="#f9e3c7" stroke-width="3" fill="none" stroke-linecap="round"/>
        <circle cx="-38" cy="-10" r="1.6" fill="#f9e3c7"/>
        <circle cx="28" cy="16" r="1.6" fill="#f9e3c7"/>
    <g transform="rotate(-20)">
    <ellipse cx="0" cy="-16" rx="8" ry="9" fill="#f9e3c7"/>
    <path d="M-8 -16 C-8 -23 -4 -27 0 -27 C4 -27 8 -23 8 -16 C8 -14 6 -12 4 -12 L-4 -12 C-6 -12 -8 -14 -8 -16 Z" fill="#6b3410"/>
    <path d="M0 -27 L0 -16" stroke="#3d1d08" stroke-width="0.5"/>
    <ellipse cx="0" cy="-9" rx="5" ry="3.5" fill="#6b3410" stroke="#3d1d08" stroke-width="0.3"/>
    <path d="M-5 -10 L-7 -7 L-2 -8 Z M5 -10 L7 -7 L2 -8 Z" fill="#bfdbfe" stroke="#c9924d" stroke-width="0.3"/>
    <path d="M-3.5 -16 L-2 -16 M2 -16 L3.5 -16" stroke="#3d1d08" stroke-width="0.7" stroke-linecap="round"/>
    <path d="M-3 -15.5 L-2.5 -15 M3 -15.5 L2.5 -15" stroke="#3d1d08" stroke-width="0.4"/>
    <path d="M0 -14 L-0.5 -12.5" stroke="#c9924d" stroke-width="0.4" fill="none"/>
    <path d="M-1.5 -10.4 L1.5 -10.4" stroke="#a44a4a" stroke-width="0.5"/>
    <circle cx="-4" cy="-12.5" r="1.2" fill="#f4a8a8" opacity="0.6"/>
    <circle cx="4" cy="-12.5" r="1.2" fill="#f4a8a8" opacity="0.6"/>
  </g>
  <path d="M-2.5 -4 L-2.5 -8 L2.5 -8 L2.5 -4 Z" fill="#f9e3c7"/>
  </g>
  </g>
  <rect x="22" y="50" width="196" height="200" rx="6" fill="none" stroke="#92400e" stroke-width="0.6" opacity="0.6"/>
  <text x="120" y="278" text-anchor="middle" font-family="Georgia, serif" font-size="13" font-style="italic" fill="#92400e">He races back to the lake</text>
  <text x="120" y="298" text-anchor="middle" font-family="system-ui, sans-serif" font-size="8" letter-spacing="2" fill="#92400e" opacity="0.6">SCENE 21 OF 24</text>
</svg>
