<svg xmlns="http://www.w3.org/2000/svg" viewBox="0 0 240 320" width="240" height="320" role="img" aria-label="Swan Lake scene 22 — A storm breaks over the water">
  <defs>
    <linearGradient id="card-bg-22" x1="0" y1="0" x2="0" y2="1">
    <stop offset="0%" stop-color="#1e293b"/>
    <stop offset="100%" stop-color="#0f172a"/>
  </linearGradient>
    <linearGradient id="tutu-22" x1="0" y1="0" x2="0" y2="1">
    <stop offset="0%" stop-color="#f8fafc"/>
    <stop offset="100%" stop-color="#cbd5e1"/>
  </linearGradient>
  </defs>
  <rect x="6" y="6" width="228" height="308" rx="20" fill="url(#card-bg-22)" stroke="#f59e0b" stroke-width="2"/>
  <text x="120" y="38" text-anchor="middle" font-family="Georgia, serif" font-size="11" letter-spacing="3" fill="#92400e">SWAN LAKE</text>
  <clipPath id="stage-22"><rect x="22" y="50" width="196" height="200" rx="6"/></clipPath>
  <g clip-path="url(#stage-22)">
    <rect x="22" y="50" width="196" height="200" fill="#1e293b"/>
    <g fill="#0a0606" opacity="0.95"><path d="M22 50 L218 50 L218 120 C180 110 150 130 120 120 C90 110 60 130 22 120 Z"/></g>
    <g fill="#0a0606" opacity="0.75"><path d="M22 110 C60 105 80 130 130 115 C170 105 200 130 218 115 L218 140 L22 140 Z"/></g>
    <path d="M120 110 L115 140 L122 130 L116 165" stroke="#fef3c7" stroke-width="1.5" fill="none"/>
    <path d="M120 110 L115 140 L122 130 L116 165" stroke="#fef3c7" stroke-width="3" fill="none" opacity="0.3"/>
    <path d="M22 195 Q60 200 90 195 Q130 188 170 198 Q200 205 218 200 L218 250 L22 250 Z" fill="#1e3a8a" opacity="0.7"/>
    <g stroke="#7eb6d9" stroke-width="0.5" fill="none" opacity="0.6">
      <path d="M22 210 Q60 205 100 210 Q140 215 218 210"/>
      <path d="M22 220 Q70 215 130 220 Q180 225 218 220"/>
    </g>
    <g transform="translate(120 168)">
    <ellipse cx="0" cy="68" rx="14" ry="2.5" fill="#000" fill-opacity="0.3"/>
    <path d="M-6 24 C-7 40 -7 58 -7 66 L0 66 L0 24 Z" fill="#f9e3c7"/>
        <path d="M0 24 C12 22 28 22 44 24 C44 26 44 28 42 28 C28 28 14 28 0 30 Z" fill="#f9e3c7"/>
        <path d="M44 24 L56 22 L56 26 L46 28 Z" fill="#f9a8c1"/>
        <path d="M-11 66 C-11 70 -6 70 -4 70 L0 70 L0 64 L-8 64 Z" fill="#f9a8c1"/>
    <path d="M-22 22 C-26 30 -24 38 -16 40 L16 40 C24 38 26 30 22 22 C18 18 -18 18 -22 22 Z" fill="url(#tutu-22)" stroke="#c9924d" stroke-width="0.4"/>
    <path d="M-20 26 C-24 32 -22 38 -16 40 L16 40 C22 38 24 32 20 26" fill="#fff5e1" opacity="0.4"/>
    <path d="M-9 -2 C-10 8 -10 16 -8 22 L8 22 C10 16 10 8 9 -2 C7 -4 -7 -4 -9 -2 Z" fill="#f1f5f9" stroke="#c9924d" stroke-width="0.4"/>
    <path d="M-7 -2 C-3 -3 3 -3 7 -2" stroke="#bfdbfe" stroke-width="0.8" fill="none"/>
    <path d="M-9 4 C-18 -8 -28 -22 -34 -32" stroke="#f9e3c7" stroke-width="3" fill="none" stroke-linecap="round"/>
        <path d="M9 4 C18 -8 28 -22 34 -32" stroke="#f9e3c7" stroke-width="3" fill="none" stroke-linecap="round"/>
        <circle cx="-34" cy="-32" r="1.6" fill="#f9e3c7"/>
        <circle cx="34" cy="-32" r="1.6" fill="#f9e3c7"/>
    <g transform="rotate(-22)">
    <ellipse cx="0" cy="-16" rx="8" ry="9" fill="#f9e3c7"/>
    <path d="M-8 -16 C-8 -23 -4 -27 0 -27 C4 -27 8 -23 8 -16 C8 -14 6 -12 4 -12 L-4 -12 C-6 -12 -8 -14 -8 -16 Z" fill="#6b3410"/>
    <path d="M0 -27 L0 -16" stroke="#3d1d08" stroke-width="0.5"/>
    <ellipse cx="0" cy="-9" rx="5" ry="3.5" fill="#6b3410" stroke="#3d1d08" stroke-width="0.3"/>
    <path d="M-5 -10 L-7 -7 L-2 -8 Z M5 -10 L7 -7 L2 -8 Z" fill="#bfdbfe" stroke="#c9924d" stroke-width="0.3"/>
    <path d="M-3.5 -16 L-2 -16 M2 -16 L3.5 -16" stroke="#3d1d08" stroke-width="0.7" stroke-linecap="round"/>
    <path d="M-3 -15.5 L-2.5 -15 M3 -15.5 L2.5 -15" stroke="#3d1d08" stroke-width="0.4"/>
    <path d="M0 -14 L-0.5 -12.5" stroke="#c9924d" stroke-width="0.4" fill="none"/>
    <path d="M-1.5 -10.4 L1.5 -10.4" stroke="#a44a4a" stroke-width="0.5"/>
    <circle cx="-4" cy="-12.5" r="1.2" fill="#f4a8a8" opacity="0.6"/>
    <circle cx="4" cy="-12.5" r="1.2" fill="#f4a8a8" opacity="0.6"/>
  </g>
  <path d="M-2.5 -4 L-2.5 -8 L2.5 -8 L2.5 -4 Z" fill="#f9e3c7"/>
  </g>
  </g>
  <rect x="22" y="50" width="196" height="200" rx="6" fill="none" stroke="#92400e" stroke-width="0.6" opacity="0.6"/>
  <text x="120" y="278" text-anchor="middle" font-family="Georgia, serif" font-size="13" font-style="italic" fill="#92400e">A storm breaks over the water</text>
  <text x="120" y="298" text-anchor="middle" font-family="system-ui, sans-serif" font-size="8" letter-spacing="2" fill="#92400e" opacity="0.6">SCENE 22 OF 24</text>
</svg>
