<svg xmlns="http://www.w3.org/2000/svg" viewBox="0 0 240 320" width="240" height="320" role="img" aria-label="Swan Lake scene 24 — The swans take flight at dawn">
  <defs>
    <linearGradient id="card-bg-24" x1="0" y1="0" x2="0" y2="1">
    <stop offset="0%" stop-color="#fed7aa"/>
    <stop offset="100%" stop-color="#fbcfe8"/>
  </linearGradient>
    <linearGradient id="tutu-24" x1="0" y1="0" x2="0" y2="1">
    <stop offset="0%" stop-color="#fdf3c4"/>
    <stop offset="100%" stop-color="#f5cf78"/>
  </linearGradient>
    <linearGradient id="sky-24" x1="0" y1="0" x2="0" y2="1">
      <stop offset="0%" stop-color="#fbcfe8"/><stop offset="50%" stop-color="#fed7aa"/><stop offset="100%" stop-color="#fdf3c4"/>
    </linearGradient>
  </defs>
  <rect x="6" y="6" width="228" height="308" rx="20" fill="url(#card-bg-24)" stroke="#f59e0b" stroke-width="2"/>
  <text x="120" y="38" text-anchor="middle" font-family="Georgia, serif" font-size="11" letter-spacing="3" fill="#92400e">SWAN LAKE</text>
  <clipPath id="stage-24"><rect x="22" y="50" width="196" height="200" rx="6"/></clipPath>
  <g clip-path="url(#stage-24)">
    <rect x="22" y="50" width="196" height="200" fill="url(#sky-24)"/>
    <circle cx="180" cy="110" r="22" fill="#fef3c7" opacity="0.95"/>
    <circle cx="180" cy="110" r="36" fill="#fef3c7" opacity="0.3"/>
    <g fill="#f8fafc" opacity="0.9">
      <path d="M60 90 C66 86 74 84 80 90 C76 94 70 96 64 94 Z"/>
      <path d="M90 75 C96 71 104 69 110 75 C106 79 100 81 94 79 Z"/>
      <path d="M50 115 C56 111 64 109 70 115 C66 119 60 121 54 119 Z"/>
      <path d="M118 100 C124 96 132 94 138 100 C134 104 128 106 122 104 Z"/>
    </g>
    <path d="M22 215 Q120 210 218 215 L218 250 L22 250 Z" fill="#fcd34d" opacity="0.5"/>
    <g transform="translate(120 168)">
    <ellipse cx="0" cy="68" rx="14" ry="2.5" fill="#000" fill-opacity="0.3"/>
    <path d="M-6 24 C-7 40 -7 58 -7 66 L0 66 L0 24 Z" fill="#f9e3c7"/>
        <path d="M0 24 C-8 28 -16 30 -20 24 C-12 22 -4 22 0 24 Z" fill="#f9e3c7"/>
        <path d="M-20 24 L-30 14 L-26 10 L-16 22 Z" fill="#f9e3c7"/>
        <path d="M-11 66 C-11 70 -6 70 -4 70 L0 70 L0 64 L-8 64 Z" fill="#f9a8c1"/>
        <path d="M-30 14 L-36 6 L-32 4 L-26 12 Z" fill="#f9a8c1"/>
    <path d="M-22 22 C-26 30 -24 38 -16 40 L16 40 C24 38 26 30 22 22 C18 18 -18 18 -22 22 Z" fill="url(#tutu-24)" stroke="#c9924d" stroke-width="0.4"/>
    <path d="M-20 26 C-24 32 -22 38 -16 40 L16 40 C22 38 24 32 20 26" fill="#fff5e1" opacity="0.4"/>
    <path d="M-9 -2 C-10 8 -10 16 -8 22 L8 22 C10 16 10 8 9 -2 C7 -4 -7 -4 -9 -2 Z" fill="#f9e3c7" stroke="#c9924d" stroke-width="0.4"/>
    <path d="M-7 -2 C-3 -3 3 -3 7 -2" stroke="#d4a017" stroke-width="0.8" fill="none"/>
    <path d="M-9 4 C-18 -8 -28 -22 -34 -32" stroke="#f9e3c7" stroke-width="3" fill="none" stroke-linecap="round"/>
        <path d="M9 4 C18 -8 28 -22 34 -32" stroke="#f9e3c7" stroke-width="3" fill="none" stroke-linecap="round"/>
        <circle cx="-34" cy="-32" r="1.6" fill="#f9e3c7"/>
        <circle cx="34" cy="-32" r="1.6" fill="#f9e3c7"/>
    <g transform="rotate(-16)">
    <ellipse cx="0" cy="-16" rx="8" ry="9" fill="#f9e3c7"/>
    <path d="M-8 -16 C-8 -23 -4 -27 0 -27 C4 -27 8 -23 8 -16 C8 -14 6 -12 4 -12 L-4 -12 C-6 -12 -8 -14 -8 -16 Z" fill="#6b3410"/>
    <path d="M0 -27 L0 -16" stroke="#3d1d08" stroke-width="0.5"/>
    <ellipse cx="0" cy="-9" rx="5" ry="3.5" fill="#6b3410" stroke="#3d1d08" stroke-width="0.3"/>
    <path d="M-5 -10 L-7 -7 L-2 -8 Z M5 -10 L7 -7 L2 -8 Z" fill="#fbcfe8" stroke="#c9924d" stroke-width="0.3"/>
    <path d="M-3.5 -16 L-2 -16 M2 -16 L3.5 -16" stroke="#3d1d08" stroke-width="0.7" stroke-linecap="round"/>
    <path d="M-3 -15.5 L-2.5 -15 M3 -15.5 L2.5 -15" stroke="#3d1d08" stroke-width="0.4"/>
    <path d="M0 -14 L-0.5 -12.5" stroke="#c9924d" stroke-width="0.4" fill="none"/>
    <ellipse cx="0" cy="-10.2" rx="0.9" ry="0.6" fill="#a44a4a"/>
    <circle cx="-4" cy="-12.5" r="1.2" fill="#f4a8a8" opacity="0.6"/>
    <circle cx="4" cy="-12.5" r="1.2" fill="#f4a8a8" opacity="0.6"/>
  </g>
  <path d="M-2.5 -4 L-2.5 -8 L2.5 -8 L2.5 -4 Z" fill="#f9e3c7"/>
  </g>
  </g>
  <rect x="22" y="50" width="196" height="200" rx="6" fill="none" stroke="#92400e" stroke-width="0.6" opacity="0.6"/>
  <text x="120" y="278" text-anchor="middle" font-family="Georgia, serif" font-size="13" font-style="italic" fill="#92400e">The swans take flight at dawn</text>
  <text x="120" y="298" text-anchor="middle" font-family="system-ui, sans-serif" font-size="8" letter-spacing="2" fill="#92400e" opacity="0.6">SCENE 24 OF 24</text>
</svg>
